<svg width="223" height="62" viewBox="0 0 223 62" fill="none" xmlns="http://www.w3.org/2000/svg">
<path d="M78.36 9.28L70.64 37H62.48L54.48 9.28H61.4L66.68 31.88L71.64 9.28H78.36ZM97.4313 37H91.9513L91.6713 34.32C90.1246 36.56 87.9779 37.68 85.2313 37.68C83.2846 37.68 81.8046 37.0933 80.7913 35.92C79.8046 34.7467 79.3113 33.1067 79.3113 31V15.76H85.6313V30.2C85.6313 31.24 85.7913 31.9733 86.1113 32.4C86.4579 32.8 86.9779 33 87.6713 33C89.0046 33 90.1513 32.1733 91.1113 30.52V15.76H97.4313V37ZM108.042 37.68C106.202 37.68 104.762 37.16 103.722 36.12C102.709 35.0533 102.202 33.5467 102.202 31.6V7.32L108.522 6.64V31.36C108.522 32.24 108.882 32.68 109.602 32.68C109.975 32.68 110.322 32.6133 110.642 32.48L111.882 36.96C110.735 37.44 109.455 37.68 108.042 37.68ZM126.717 15.08C128.557 15.08 129.997 15.64 131.037 16.76C132.077 17.88 132.597 19.4533 132.597 21.48V37H126.277V22.56C126.277 21.4933 126.104 20.76 125.757 20.36C125.437 19.9333 124.944 19.72 124.277 19.72C122.997 19.72 121.77 20.64 120.597 22.48V37H114.277V15.76H119.797L120.237 18.28C121.144 17.2133 122.117 16.4133 123.157 15.88C124.224 15.3467 125.41 15.08 126.717 15.08ZM154.243 30.84C154.243 31.64 154.349 32.2267 154.563 32.6C154.803 32.9733 155.176 33.2533 155.683 33.44L154.363 37.56C153.056 37.4533 151.989 37.1733 151.163 36.72C150.336 36.24 149.696 35.4933 149.243 34.48C147.856 36.6133 145.723 37.68 142.843 37.68C140.736 37.68 139.056 37.0667 137.803 35.84C136.549 34.6133 135.923 33.0133 135.923 31.04C135.923 28.72 136.776 26.9467 138.483 25.72C140.189 24.4933 142.656 23.88 145.883 23.88H148.043V22.96C148.043 21.7067 147.776 20.8533 147.243 20.4C146.709 19.92 145.776 19.68 144.443 19.68C143.749 19.68 142.909 19.7867 141.923 20C140.936 20.1867 139.923 20.4533 138.883 20.8L137.443 16.64C138.776 16.1333 140.136 15.7467 141.523 15.48C142.936 15.2133 144.243 15.08 145.443 15.08C148.483 15.08 150.709 15.7067 152.123 16.96C153.536 18.2133 154.243 20.0933 154.243 22.6V30.84ZM144.683 33.16C146.123 33.16 147.243 32.48 148.043 31.12V27.36H146.483C145.043 27.36 143.963 27.6133 143.243 28.12C142.549 28.6267 142.203 29.4133 142.203 30.48C142.203 31.3333 142.416 32 142.843 32.48C143.296 32.9333 143.909 33.16 144.683 33.16ZM164.526 37.68C162.686 37.68 161.246 37.16 160.206 36.12C159.193 35.0533 158.686 33.5467 158.686 31.6V7.32L165.006 6.64V31.36C165.006 32.24 165.366 32.68 166.086 32.68C166.46 32.68 166.806 32.6133 167.126 32.48L168.366 36.96C167.22 37.44 165.94 37.68 164.526 37.68ZM189.086 25.96C189.086 26.84 189.046 27.6 188.966 28.24H175.806C176.019 30.0267 176.526 31.28 177.326 32C178.126 32.72 179.233 33.08 180.646 33.08C181.499 33.08 182.326 32.9333 183.126 32.64C183.926 32.32 184.793 31.84 185.726 31.2L188.326 34.72C185.846 36.6933 183.086 37.68 180.046 37.68C176.606 37.68 173.966 36.6667 172.126 34.64C170.286 32.6133 169.366 29.8933 169.366 26.48C169.366 24.32 169.753 22.3867 170.526 20.68C171.299 18.9467 172.433 17.5867 173.926 16.6C175.419 15.5867 177.206 15.08 179.286 15.08C182.353 15.08 184.753 16.04 186.486 17.96C188.219 19.88 189.086 22.5467 189.086 25.96ZM182.886 24.16C182.833 20.9067 181.686 19.28 179.446 19.28C178.353 19.28 177.499 19.68 176.886 20.48C176.299 21.28 175.939 22.6 175.806 24.44H182.886V24.16ZM204.156 15.16C204.93 15.16 205.636 15.2533 206.276 15.44L205.276 21.56C204.476 21.3733 203.836 21.28 203.356 21.28C202.103 21.28 201.143 21.72 200.476 22.6C199.836 23.4533 199.33 24.7467 198.956 26.48V37H192.636V15.76H198.156L198.676 19.88C199.156 18.4133 199.876 17.2667 200.836 16.44C201.823 15.5867 202.93 15.16 204.156 15.16ZM222.011 36C221.238 36.5333 220.331 36.9467 219.291 37.24C218.278 37.5333 217.264 37.68 216.251 37.68C211.611 37.6533 209.291 35.0933 209.291 30V20.16H206.291V15.76H209.291V11.16L215.611 10.44V15.76H220.491L219.811 20.16H215.611V29.92C215.611 30.9067 215.771 31.6133 216.091 32.04C216.411 32.4667 216.918 32.68 217.611 32.68C218.331 32.68 219.091 32.4533 219.891 32L222.011 36Z" fill="url(#paint0_linear_125_62)"/>
<path d="M21.5 47.7781C18.7576 47.7781 13.3348 44.5245 9.245 39.7992C3.44 33.096 1.6105e-07 23.8104 1.6105e-07 11.9448C-0.000175228 11.467 0.142907 11.0002 0.410764 10.6046C0.678621 10.209 1.05895 9.90277 1.50261 9.72552C9.32383 6.59608 15.5493 3.48336 20.1742 0.401691C20.5667 0.139775 21.0281 0 21.5 0C21.9719 0 22.4333 0.139775 22.8258 0.401691C27.4483 3.48336 33.6786 6.59847 41.4974 9.72552C41.9411 9.90277 42.3214 10.209 42.5892 10.6046C42.8571 11.0002 43.0002 11.467 43 11.9448C43 23.8128 39.56 33.0984 33.755 39.7992C29.6676 44.5221 24.2448 47.7781 21.5 47.7781Z" fill="url(#paint1_linear_125_62)"/>
<path d="M21.4999 32.2621C17.988 32.2621 14.2084 30.8887 10.5696 28.2902C7.84942 26.3477 6.17048 24.4232 6.10032 24.3421C5.81291 24.0103 5.81291 23.5177 6.10032 23.1858C6.17048 23.1048 7.84934 21.1802 10.5696 19.2378C14.2085 16.6395 17.9881 15.2659 21.4999 15.2659C25.0118 15.2659 28.7916 16.6394 32.4303 19.2378C35.1505 21.1802 36.8294 23.1048 36.8996 23.1858C37.187 23.5176 37.187 24.0102 36.8996 24.3421C36.8294 24.4231 35.1505 26.3477 32.4303 28.2902C28.7916 30.8886 25.0119 32.2621 21.4999 32.2621ZM7.97871 23.7641C8.65766 24.4564 9.93905 25.6738 11.6309 26.8777C13.9504 28.5282 17.5454 30.4959 21.4999 30.4959C25.4545 30.4959 29.0496 28.5282 31.369 26.8777C33.0606 25.674 34.3421 24.4564 35.0212 23.7641C34.3423 23.0718 33.0608 21.8544 31.369 20.6504C29.0496 18.9999 25.4545 17.0323 21.4999 17.0323C17.5454 17.0323 13.9504 18.9999 11.6309 20.6504C9.93926 21.8542 8.6578 23.0715 7.97871 23.7641Z" fill="white"/>
<path d="M21.4998 29.2395C18.4807 29.2395 16.0244 26.7832 16.0244 23.7641C16.0244 20.745 18.4807 18.2887 21.4998 18.2887C22.8276 18.2887 24.1085 18.7701 25.1064 19.6443C25.4733 19.9657 25.5102 20.5237 25.1888 20.8905C24.8674 21.2574 24.3094 21.2942 23.9426 20.9729C23.2669 20.3809 22.3993 20.055 21.4998 20.055C19.4545 20.055 17.7906 21.7189 17.7906 23.7641C17.7906 25.8093 19.4545 27.4733 21.4998 27.4733C23.5451 27.4733 25.2089 25.8093 25.2089 23.7641C25.2089 23.2764 25.6043 22.881 26.092 22.881C26.5797 22.881 26.9752 23.2764 26.9752 23.7641C26.9753 26.7832 24.519 29.2395 21.4998 29.2395Z" fill="white"/>
<path d="M21.5 25.5304C20.5261 25.5304 19.7338 24.738 19.7338 23.7641C19.7338 22.7902 20.5261 21.9979 21.5 21.9979C22.474 21.9979 23.2663 22.7902 23.2663 23.7641C23.2663 24.738 22.474 25.5304 21.5 25.5304Z" fill="white"/>
<line x1="-4.37114e-08" y1="61.5" x2="222" y2="61.5" stroke="#DFE3E8"/>
<defs>
<linearGradient id="paint0_linear_125_62" x1="140.377" y1="-9808.99" x2="-790.327" y2="-9720.5" gradientUnits="userSpaceOnUse">
<stop stop-color="#4429E9"/>
<stop offset="1" stop-color="#715AFC"/>
</linearGradient>
<linearGradient id="paint1_linear_125_62" x1="21.5" y1="0" x2="21.5" y2="47.7781" gradientUnits="userSpaceOnUse">
<stop stop-color="#4429E9"/>
<stop offset="1" stop-color="#7D6DDB"/>
</linearGradient>
</defs>
</svg>
