<svg width="144" height="37" viewBox="0 0 144 37" fill="none" xmlns="http://www.w3.org/2000/svg">
<path d="M57.016 10.368L52.384 27H47.488L42.688 10.368H46.84L50.008 23.928L52.984 10.368H57.016ZM68.4588 27H65.1708L65.0028 25.392C64.0748 26.736 62.7868 27.408 61.1388 27.408C59.9708 27.408 59.0828 27.056 58.4748 26.352C57.8828 25.648 57.5868 24.664 57.5868 23.4V14.256H61.3788V22.92C61.3788 23.544 61.4748 23.984 61.6668 24.24C61.8748 24.48 62.1868 24.6 62.6028 24.6C63.4028 24.6 64.0908 24.104 64.6668 23.112V14.256H68.4588V27ZM74.8251 27.408C73.7211 27.408 72.8571 27.096 72.2331 26.472C71.6251 25.832 71.3211 24.928 71.3211 23.76V9.192L75.1131 8.784V23.616C75.1131 24.144 75.3291 24.408 75.7611 24.408C75.9851 24.408 76.1931 24.368 76.3851 24.288L77.1291 26.976C76.4411 27.264 75.6731 27.408 74.8251 27.408ZM86.0301 13.848C87.1341 13.848 87.9981 14.184 88.6221 14.856C89.2461 15.528 89.5581 16.472 89.5581 17.688V27H85.7661V18.336C85.7661 17.696 85.6621 17.256 85.4541 17.016C85.2621 16.76 84.9661 16.632 84.5661 16.632C83.7981 16.632 83.0621 17.184 82.3581 18.288V27H78.5661V14.256H81.8781L82.1421 15.768C82.6861 15.128 83.2701 14.648 83.8941 14.328C84.5341 14.008 85.2461 13.848 86.0301 13.848ZM102.546 23.304C102.546 23.784 102.61 24.136 102.738 24.36C102.882 24.584 103.106 24.752 103.41 24.864L102.618 27.336C101.834 27.272 101.194 27.104 100.698 26.832C100.202 26.544 99.8177 26.096 99.5457 25.488C98.7137 26.768 97.4337 27.408 95.7057 27.408C94.4417 27.408 93.4337 27.04 92.6817 26.304C91.9297 25.568 91.5537 24.608 91.5537 23.424C91.5537 22.032 92.0657 20.968 93.0897 20.232C94.1137 19.496 95.5937 19.128 97.5297 19.128H98.8257V18.576C98.8257 17.824 98.6657 17.312 98.3457 17.04C98.0257 16.752 97.4657 16.608 96.6657 16.608C96.2497 16.608 95.7457 16.672 95.1537 16.8C94.5617 16.912 93.9537 17.072 93.3297 17.28L92.4657 14.784C93.2657 14.48 94.0817 14.248 94.9137 14.088C95.7617 13.928 96.5457 13.848 97.2657 13.848C99.0897 13.848 100.426 14.224 101.274 14.976C102.122 15.728 102.546 16.856 102.546 18.36V23.304ZM96.8097 24.696C97.6737 24.696 98.3457 24.288 98.8257 23.472V21.216H97.8897C97.0257 21.216 96.3777 21.368 95.9457 21.672C95.5297 21.976 95.3217 22.448 95.3217 23.088C95.3217 23.6 95.4497 24 95.7057 24.288C95.9777 24.56 96.3457 24.696 96.8097 24.696ZM108.716 27.408C107.612 27.408 106.748 27.096 106.124 26.472C105.516 25.832 105.212 24.928 105.212 23.76V9.192L109.004 8.784V23.616C109.004 24.144 109.22 24.408 109.652 24.408C109.876 24.408 110.084 24.368 110.276 24.288L111.02 26.976C110.332 27.264 109.564 27.408 108.716 27.408ZM123.452 20.376C123.452 20.904 123.428 21.36 123.38 21.744H115.484C115.612 22.816 115.916 23.568 116.396 24C116.876 24.432 117.54 24.648 118.388 24.648C118.9 24.648 119.396 24.56 119.876 24.384C120.356 24.192 120.876 23.904 121.436 23.52L122.996 25.632C121.508 26.816 119.852 27.408 118.028 27.408C115.964 27.408 114.38 26.8 113.276 25.584C112.172 24.368 111.62 22.736 111.62 20.688C111.62 19.392 111.852 18.232 112.316 17.208C112.78 16.168 113.46 15.352 114.356 14.76C115.252 14.152 116.324 13.848 117.572 13.848C119.412 13.848 120.852 14.424 121.892 15.576C122.932 16.728 123.452 18.328 123.452 20.376ZM119.732 19.296C119.7 17.344 119.012 16.368 117.668 16.368C117.012 16.368 116.5 16.608 116.132 17.088C115.78 17.568 115.564 18.36 115.484 19.464H119.732V19.296ZM132.494 13.896C132.958 13.896 133.382 13.952 133.766 14.064L133.166 17.736C132.686 17.624 132.302 17.568 132.014 17.568C131.262 17.568 130.686 17.832 130.286 18.36C129.902 18.872 129.598 19.648 129.374 20.688V27H125.582V14.256H128.894L129.206 16.728C129.494 15.848 129.926 15.16 130.502 14.664C131.094 14.152 131.758 13.896 132.494 13.896ZM143.207 26.4C142.743 26.72 142.199 26.968 141.575 27.144C140.967 27.32 140.359 27.408 139.751 27.408C136.967 27.392 135.575 25.856 135.575 22.8V16.896H133.775V14.256H135.575V11.496L139.367 11.064V14.256H142.295L141.887 16.896H139.367V22.752C139.367 23.344 139.463 23.768 139.655 24.024C139.847 24.28 140.151 24.408 140.567 24.408C140.999 24.408 141.455 24.272 141.935 24L143.207 26.4Z" fill="#4429E9"/>
<path d="M16.5 36.6669C14.3953 36.6669 10.2337 34.1699 7.095 30.5436C2.64 25.3993 1.23597e-07 18.2731 1.23597e-07 9.16694C-0.000134478 8.80029 0.109673 8.44202 0.315238 8.13841C0.520802 7.8348 0.81268 7.5998 1.15317 7.46377C7.1555 5.06211 11.9332 2.67327 15.4825 0.308274C15.7838 0.107269 16.1378 0 16.5 0C16.8622 0 17.2162 0.107269 17.5175 0.308274C21.065 2.67327 25.8463 5.06394 31.8468 7.46377C32.1873 7.5998 32.4792 7.8348 32.6848 8.13841C32.8903 8.44202 33.0001 8.80029 33 9.16694C33 18.2749 30.36 25.4011 25.905 30.5436C22.7682 34.1681 18.6065 36.6669 16.5 36.6669Z" fill="url(#paint0_linear_124_60)"/>
<path d="M16.5 24.7594C13.8048 24.7594 10.9042 23.7053 8.1116 21.7111C6.02402 20.2204 4.73553 18.7435 4.68169 18.6812C4.46112 18.4266 4.46112 18.0485 4.68169 17.7938C4.73553 17.7317 6.02397 16.2547 8.1116 14.7639C10.9042 12.7699 13.8049 11.7157 16.5 11.7157C19.1952 11.7157 22.0959 12.7698 24.8884 14.7639C26.976 16.2547 28.2645 17.7316 28.3183 17.7938C28.5389 18.0485 28.5389 18.4265 28.3183 18.6812C28.2645 18.7434 26.976 20.2204 24.8884 21.7111C22.0959 23.7053 19.1952 24.7594 16.5 24.7594ZM6.12324 18.2376C6.6443 18.7689 7.62769 19.7032 8.9261 20.6271C10.7061 21.8938 13.4651 23.4039 16.5 23.4039C19.5349 23.4039 22.2939 21.8938 24.0739 20.6271C25.3722 19.7033 26.3556 18.769 26.8768 18.2376C26.3558 17.7063 25.3723 16.772 24.0739 15.8481C22.2939 14.5814 19.5349 13.0713 16.5 13.0713C13.4651 13.0713 10.7061 14.5814 8.9261 15.8481C7.62785 16.7719 6.64441 17.7061 6.12324 18.2376Z" fill="white"/>
<path d="M16.5 22.4397C14.183 22.4397 12.2979 20.5546 12.2979 18.2376C12.2979 15.9206 14.183 14.0356 16.5 14.0356C17.519 14.0356 18.502 14.405 19.2678 15.0759C19.5494 15.3226 19.5777 15.7508 19.3311 16.0323C19.0844 16.3139 18.6562 16.3421 18.3747 16.0955C17.8561 15.6412 17.1903 15.3911 16.5 15.3911C14.9303 15.3911 13.6534 16.6681 13.6534 18.2376C13.6534 19.8072 14.9303 21.0842 16.5 21.0842C18.0696 21.0842 19.3465 19.8072 19.3465 18.2376C19.3465 17.8633 19.65 17.5599 20.0243 17.5599C20.3985 17.5599 20.702 17.8633 20.702 18.2376C20.7021 20.5546 18.8171 22.4397 16.5 22.4397Z" fill="white"/>
<path d="M16.5 19.5931C15.7526 19.5931 15.1445 18.985 15.1445 18.2376C15.1445 17.4902 15.7526 16.8821 16.5 16.8821C17.2475 16.8821 17.8555 17.4902 17.8555 18.2376C17.8555 18.985 17.2475 19.5931 16.5 19.5931Z" fill="white"/>
<defs>
<linearGradient id="paint0_linear_124_60" x1="16.5" y1="0" x2="16.5" y2="36.6669" gradientUnits="userSpaceOnUse">
<stop stop-color="#4429E9"/>
<stop offset="1" stop-color="#7D6DDB"/>
</linearGradient>
</defs>
</svg>
