<svg width="237" height="56" viewBox="0 0 237 56" fill="none" xmlns="http://www.w3.org/2000/svg">
<path d="M92.36 13.28L84.64 41H76.48L68.48 13.28H75.4L80.68 35.88L85.64 13.28H92.36ZM111.431 41H105.951L105.671 38.32C104.125 40.56 101.978 41.68 99.2313 41.68C97.2846 41.68 95.8046 41.0933 94.7913 39.92C93.8046 38.7467 93.3113 37.1067 93.3113 35V19.76H99.6313V34.2C99.6313 35.24 99.7913 35.9733 100.111 36.4C100.458 36.8 100.978 37 101.671 37C103.005 37 104.151 36.1733 105.111 34.52V19.76H111.431V41ZM122.042 41.68C120.202 41.68 118.762 41.16 117.722 40.12C116.709 39.0533 116.202 37.5467 116.202 35.6V11.32L122.522 10.64V35.36C122.522 36.24 122.882 36.68 123.602 36.68C123.975 36.68 124.322 36.6133 124.642 36.48L125.882 40.96C124.735 41.44 123.455 41.68 122.042 41.68ZM140.717 19.08C142.557 19.08 143.997 19.64 145.037 20.76C146.077 21.88 146.597 23.4533 146.597 25.48V41H140.277V26.56C140.277 25.4933 140.104 24.76 139.757 24.36C139.437 23.9333 138.944 23.72 138.277 23.72C136.997 23.72 135.77 24.64 134.597 26.48V41H128.277V19.76H133.797L134.237 22.28C135.144 21.2133 136.117 20.4133 137.157 19.88C138.224 19.3467 139.41 19.08 140.717 19.08ZM168.243 34.84C168.243 35.64 168.349 36.2267 168.563 36.6C168.803 36.9733 169.176 37.2533 169.683 37.44L168.363 41.56C167.056 41.4533 165.989 41.1733 165.163 40.72C164.336 40.24 163.696 39.4933 163.243 38.48C161.856 40.6133 159.723 41.68 156.843 41.68C154.736 41.68 153.056 41.0667 151.803 39.84C150.549 38.6133 149.923 37.0133 149.923 35.04C149.923 32.72 150.776 30.9467 152.483 29.72C154.189 28.4933 156.656 27.88 159.883 27.88H162.043V26.96C162.043 25.7067 161.776 24.8533 161.243 24.4C160.709 23.92 159.776 23.68 158.443 23.68C157.749 23.68 156.909 23.7867 155.923 24C154.936 24.1867 153.923 24.4533 152.883 24.8L151.443 20.64C152.776 20.1333 154.136 19.7467 155.523 19.48C156.936 19.2133 158.243 19.08 159.443 19.08C162.483 19.08 164.709 19.7067 166.123 20.96C167.536 22.2133 168.243 24.0933 168.243 26.6V34.84ZM158.683 37.16C160.123 37.16 161.243 36.48 162.043 35.12V31.36H160.483C159.043 31.36 157.963 31.6133 157.243 32.12C156.549 32.6267 156.203 33.4133 156.203 34.48C156.203 35.3333 156.416 36 156.843 36.48C157.296 36.9333 157.909 37.16 158.683 37.16ZM178.526 41.68C176.686 41.68 175.246 41.16 174.206 40.12C173.193 39.0533 172.686 37.5467 172.686 35.6V11.32L179.006 10.64V35.36C179.006 36.24 179.366 36.68 180.086 36.68C180.46 36.68 180.806 36.6133 181.126 36.48L182.366 40.96C181.22 41.44 179.94 41.68 178.526 41.68ZM203.086 29.96C203.086 30.84 203.046 31.6 202.966 32.24H189.806C190.019 34.0267 190.526 35.28 191.326 36C192.126 36.72 193.233 37.08 194.646 37.08C195.499 37.08 196.326 36.9333 197.126 36.64C197.926 36.32 198.793 35.84 199.726 35.2L202.326 38.72C199.846 40.6933 197.086 41.68 194.046 41.68C190.606 41.68 187.966 40.6667 186.126 38.64C184.286 36.6133 183.366 33.8933 183.366 30.48C183.366 28.32 183.753 26.3867 184.526 24.68C185.299 22.9467 186.433 21.5867 187.926 20.6C189.419 19.5867 191.206 19.08 193.286 19.08C196.353 19.08 198.753 20.04 200.486 21.96C202.219 23.88 203.086 26.5467 203.086 29.96ZM196.886 28.16C196.833 24.9067 195.686 23.28 193.446 23.28C192.353 23.28 191.499 23.68 190.886 24.48C190.299 25.28 189.939 26.6 189.806 28.44H196.886V28.16ZM218.156 19.16C218.93 19.16 219.636 19.2533 220.276 19.44L219.276 25.56C218.476 25.3733 217.836 25.28 217.356 25.28C216.103 25.28 215.143 25.72 214.476 26.6C213.836 27.4533 213.33 28.7467 212.956 30.48V41H206.636V19.76H212.156L212.676 23.88C213.156 22.4133 213.876 21.2667 214.836 20.44C215.823 19.5867 216.93 19.16 218.156 19.16ZM236.011 40C235.238 40.5333 234.331 40.9467 233.291 41.24C232.278 41.5333 231.264 41.68 230.251 41.68C225.611 41.6533 223.291 39.0933 223.291 34V24.16H220.291V19.76H223.291V15.16L229.611 14.44V19.76H234.491L233.811 24.16H229.611V33.92C229.611 34.9067 229.771 35.6133 230.091 36.04C230.411 36.4667 230.918 36.68 231.611 36.68C232.331 36.68 233.091 36.4533 233.891 36L236.011 40Z" fill="url(#paint0_linear_124_59)"/>
<path d="M25 55.556C21.8111 55.556 15.5056 51.7726 10.75 46.2782C4 38.4837 1.87268e-07 27.6865 1.87268e-07 13.8893C-0.000203754 13.3338 0.166171 12.7909 0.477633 12.3309C0.789094 11.8709 1.23133 11.5149 1.74722 11.3087C10.8417 7.66986 18.0806 4.05042 23.4583 0.467082C23.9148 0.162529 24.4513 0 25 0C25.5487 0 26.0852 0.162529 26.5417 0.467082C31.9167 4.05042 39.1611 7.67264 48.2528 11.3087C48.7687 11.5149 49.2109 11.8709 49.5224 12.3309C49.8338 12.7909 50.0002 13.3338 50 13.8893C50 27.6893 46 38.4865 39.25 46.2782C34.4972 51.7699 28.1917 55.556 25 55.556Z" fill="url(#paint1_linear_124_59)"/>
<path d="M25 37.5141C20.9164 37.5141 16.5214 35.9171 12.2903 32.8956C9.12725 30.6369 7.175 28.3991 7.09342 28.3048C6.75923 27.919 6.75923 27.3462 7.09342 26.9603C7.175 26.8661 9.12717 24.6282 12.2903 22.3695C16.5215 19.3482 20.9164 17.751 25 17.751C29.0836 17.751 33.4786 19.3482 37.7097 22.3695C40.8727 24.6282 42.8249 26.866 42.9065 26.9603C43.2407 27.3461 43.2407 27.9189 42.9065 28.3048C42.8249 28.399 40.8727 30.6369 37.7097 32.8956C33.4786 35.917 29.0836 37.5141 25 37.5141ZM9.27759 27.6327C10.0671 28.4377 11.5571 29.8532 13.5243 31.2532C16.2214 33.1723 20.4016 35.4603 25 35.4603C29.5983 35.4603 33.7786 33.1723 36.4756 31.2532C38.4426 29.8535 39.9327 28.4377 40.7223 27.6327C39.9329 26.8277 38.4429 25.4121 36.4756 24.0122C33.7786 22.0929 29.5983 19.805 25 19.805C20.4016 19.805 16.2214 22.0929 13.5243 24.0122C11.5573 25.4119 10.0672 26.8274 9.27759 27.6327Z" fill="white"/>
<path d="M24.9998 33.9995C21.4891 33.9995 18.6331 31.1433 18.6331 27.6327C18.6331 24.1221 21.4891 21.2659 24.9998 21.2659C26.5438 21.2659 28.0332 21.8257 29.1935 22.8423C29.6201 23.216 29.663 23.8647 29.2893 24.2913C28.9156 24.7179 28.2667 24.7607 27.8402 24.3871C27.0545 23.6988 26.0457 23.3197 24.9997 23.3197C22.6215 23.3197 20.6868 25.2546 20.6868 27.6327C20.6868 30.0108 22.6215 31.9457 24.9997 31.9457C27.378 31.9457 29.3127 30.0108 29.3127 27.6327C29.3127 27.0656 29.7725 26.6058 30.3396 26.6058C30.9067 26.6058 31.3665 27.0656 31.3665 27.6327C31.3667 31.1433 28.5105 33.9995 24.9998 33.9995Z" fill="white"/>
<path d="M25.0001 29.6865C23.8676 29.6865 22.9463 28.7652 22.9463 27.6327C22.9463 26.5003 23.8676 25.5789 25.0001 25.5789C26.1326 25.5789 27.0539 26.5003 27.0539 27.6327C27.0539 28.7652 26.1326 29.6865 25.0001 29.6865Z" fill="white"/>
<defs>
<linearGradient id="paint0_linear_124_59" x1="154.377" y1="-9804.99" x2="-776.327" y2="-9716.5" gradientUnits="userSpaceOnUse">
<stop stop-color="#4429E9"/>
<stop offset="1" stop-color="#715AFC"/>
</linearGradient>
<linearGradient id="paint1_linear_124_59" x1="25" y1="0" x2="25" y2="55.556" gradientUnits="userSpaceOnUse">
<stop stop-color="#4429E9"/>
<stop offset="1" stop-color="#7D6DDB"/>
</linearGradient>
</defs>
</svg>
