<svg width="250" height="69" viewBox="0 0 250 69" fill="none" xmlns="http://www.w3.org/2000/svg">
<path d="M105.36 22.28L97.64 50H89.48L81.48 22.28H88.4L93.68 44.88L98.64 22.28H105.36ZM124.431 50H118.951L118.671 47.32C117.125 49.56 114.978 50.68 112.231 50.68C110.285 50.68 108.805 50.0933 107.791 48.92C106.805 47.7467 106.311 46.1067 106.311 44V28.76H112.631V43.2C112.631 44.24 112.791 44.9733 113.111 45.4C113.458 45.8 113.978 46 114.671 46C116.005 46 117.151 45.1733 118.111 43.52V28.76H124.431V50ZM135.042 50.68C133.202 50.68 131.762 50.16 130.722 49.12C129.709 48.0533 129.202 46.5467 129.202 44.6V20.32L135.522 19.64V44.36C135.522 45.24 135.882 45.68 136.602 45.68C136.975 45.68 137.322 45.6133 137.642 45.48L138.882 49.96C137.735 50.44 136.455 50.68 135.042 50.68ZM153.717 28.08C155.557 28.08 156.997 28.64 158.037 29.76C159.077 30.88 159.597 32.4533 159.597 34.48V50H153.277V35.56C153.277 34.4933 153.104 33.76 152.757 33.36C152.437 32.9333 151.944 32.72 151.277 32.72C149.997 32.72 148.77 33.64 147.597 35.48V50H141.277V28.76H146.797L147.237 31.28C148.144 30.2133 149.117 29.4133 150.157 28.88C151.224 28.3467 152.41 28.08 153.717 28.08ZM181.243 43.84C181.243 44.64 181.349 45.2267 181.563 45.6C181.803 45.9733 182.176 46.2533 182.683 46.44L181.363 50.56C180.056 50.4533 178.989 50.1733 178.163 49.72C177.336 49.24 176.696 48.4933 176.243 47.48C174.856 49.6133 172.723 50.68 169.843 50.68C167.736 50.68 166.056 50.0667 164.803 48.84C163.549 47.6133 162.923 46.0133 162.923 44.04C162.923 41.72 163.776 39.9467 165.483 38.72C167.189 37.4933 169.656 36.88 172.883 36.88H175.043V35.96C175.043 34.7067 174.776 33.8533 174.243 33.4C173.709 32.92 172.776 32.68 171.443 32.68C170.749 32.68 169.909 32.7867 168.923 33C167.936 33.1867 166.923 33.4533 165.883 33.8L164.443 29.64C165.776 29.1333 167.136 28.7467 168.523 28.48C169.936 28.2133 171.243 28.08 172.443 28.08C175.483 28.08 177.709 28.7067 179.123 29.96C180.536 31.2133 181.243 33.0933 181.243 35.6V43.84ZM171.683 46.16C173.123 46.16 174.243 45.48 175.043 44.12V40.36H173.483C172.043 40.36 170.963 40.6133 170.243 41.12C169.549 41.6267 169.203 42.4133 169.203 43.48C169.203 44.3333 169.416 45 169.843 45.48C170.296 45.9333 170.909 46.16 171.683 46.16ZM191.526 50.68C189.686 50.68 188.246 50.16 187.206 49.12C186.193 48.0533 185.686 46.5467 185.686 44.6V20.32L192.006 19.64V44.36C192.006 45.24 192.366 45.68 193.086 45.68C193.46 45.68 193.806 45.6133 194.126 45.48L195.366 49.96C194.22 50.44 192.94 50.68 191.526 50.68ZM216.086 38.96C216.086 39.84 216.046 40.6 215.966 41.24H202.806C203.019 43.0267 203.526 44.28 204.326 45C205.126 45.72 206.233 46.08 207.646 46.08C208.499 46.08 209.326 45.9333 210.126 45.64C210.926 45.32 211.793 44.84 212.726 44.2L215.326 47.72C212.846 49.6933 210.086 50.68 207.046 50.68C203.606 50.68 200.966 49.6667 199.126 47.64C197.286 45.6133 196.366 42.8933 196.366 39.48C196.366 37.32 196.753 35.3867 197.526 33.68C198.299 31.9467 199.433 30.5867 200.926 29.6C202.419 28.5867 204.206 28.08 206.286 28.08C209.353 28.08 211.753 29.04 213.486 30.96C215.219 32.88 216.086 35.5467 216.086 38.96ZM209.886 37.16C209.833 33.9067 208.686 32.28 206.446 32.28C205.353 32.28 204.499 32.68 203.886 33.48C203.299 34.28 202.939 35.6 202.806 37.44H209.886V37.16ZM231.156 28.16C231.93 28.16 232.636 28.2533 233.276 28.44L232.276 34.56C231.476 34.3733 230.836 34.28 230.356 34.28C229.103 34.28 228.143 34.72 227.476 35.6C226.836 36.4533 226.33 37.7467 225.956 39.48V50H219.636V28.76H225.156L225.676 32.88C226.156 31.4133 226.876 30.2667 227.836 29.44C228.823 28.5867 229.93 28.16 231.156 28.16ZM249.011 49C248.238 49.5333 247.331 49.9467 246.291 50.24C245.278 50.5333 244.264 50.68 243.251 50.68C238.611 50.6533 236.291 48.0933 236.291 43V33.16H233.291V28.76H236.291V24.16L242.611 23.44V28.76H247.491L246.811 33.16H242.611V42.92C242.611 43.9067 242.771 44.6133 243.091 45.04C243.411 45.4667 243.918 45.68 244.611 45.68C245.331 45.68 246.091 45.4533 246.891 45L249.011 49Z" fill="url(#paint0_linear_124_51)"/>
<path d="M30.8999 68.6669C26.9584 68.6669 19.1648 63.9908 13.287 57.1996C4.94398 47.5657 2.31462e-07 34.2204 2.31462e-07 17.1671C-0.000251839 16.4805 0.205387 15.8095 0.590352 15.241C0.975317 14.6724 1.52192 14.2323 2.15956 13.9776C13.4003 9.47991 22.3475 5.0063 28.9944 0.577312C29.5586 0.200886 30.2216 0 30.8999 0C31.5781 0 32.2412 0.200886 32.8054 0.577312C39.4489 5.0063 48.403 9.48335 59.6402 13.9776C60.2779 14.2323 60.8245 14.6724 61.2094 15.241C61.5944 15.8095 61.8 16.4805 61.7998 17.1671C61.7998 34.2239 56.8558 47.5692 48.5128 57.1996C42.6384 63.9873 34.8448 68.6669 30.8999 68.6669Z" fill="url(#paint1_linear_124_51)"/>
<path d="M30.8998 46.3673C25.8525 46.3673 20.4204 44.3934 15.1907 40.6587C11.2812 37.867 8.86827 35.1012 8.76744 34.9846C8.35438 34.5077 8.35438 33.7998 8.76744 33.3227C8.86827 33.2064 11.2811 30.4403 15.1907 27.6486C20.4205 23.9143 25.8526 21.9402 30.8998 21.9402C35.9472 21.9402 41.3794 23.9142 46.609 27.6486C50.5184 30.4403 52.9314 33.2063 53.0322 33.3227C53.4453 33.7997 53.4453 34.5076 53.0322 34.9846C52.9314 35.101 50.5185 37.867 46.609 40.6587C41.3794 44.3933 35.9473 46.3673 30.8998 46.3673ZM11.4671 34.1538C12.4429 35.1488 14.2845 36.8984 16.716 38.6288C20.0496 41.0008 25.2163 43.8288 30.8998 43.8288C36.5834 43.8288 41.7502 41.0008 45.0837 38.6288C47.5149 36.8987 49.3566 35.1489 50.3326 34.1538C49.3569 33.1588 47.5152 31.4092 45.0837 29.6789C41.7502 27.3067 36.5834 24.4789 30.8998 24.4789C25.2163 24.4789 20.0496 27.3067 16.716 29.6789C14.2848 31.4089 12.4431 33.1585 11.4671 34.1538Z" fill="white"/>
<path d="M30.8997 42.0232C26.5605 42.0232 23.0304 38.493 23.0304 34.1539C23.0304 29.8148 26.5605 26.2846 30.8997 26.2846C32.808 26.2846 34.6489 26.9765 36.0831 28.2329C36.6104 28.6948 36.6634 29.4967 36.2015 30.024C35.7396 30.5513 34.9376 30.6042 34.4104 30.1424C33.4393 29.2916 32.1924 28.8231 30.8996 28.8231C27.9601 28.8231 25.5688 31.2145 25.5688 34.1539C25.5688 37.0933 27.9601 39.4847 30.8996 39.4847C33.8391 39.4847 36.2304 37.0933 36.2304 34.1539C36.2304 33.453 36.7987 32.8847 37.4996 32.8847C38.2006 32.8847 38.7689 33.453 38.7689 34.1539C38.7691 38.493 35.2389 42.0232 30.8997 42.0232Z" fill="white"/>
<path d="M30.8999 36.6924C29.5002 36.6924 28.3615 35.5536 28.3615 34.1539C28.3615 32.7542 29.5002 31.6154 30.8999 31.6154C32.2998 31.6154 33.4384 32.7542 33.4384 34.1539C33.4384 35.5536 32.2998 36.6924 30.8999 36.6924Z" fill="white"/>
<defs>
<linearGradient id="paint0_linear_124_51" x1="167.377" y1="-9795.99" x2="-763.327" y2="-9707.5" gradientUnits="userSpaceOnUse">
<stop stop-color="#4429E9"/>
<stop offset="1" stop-color="#715AFC"/>
</linearGradient>
<linearGradient id="paint1_linear_124_51" x1="30.8999" y1="0" x2="30.8999" y2="68.6669" gradientUnits="userSpaceOnUse">
<stop stop-color="#4429E9"/>
<stop offset="1" stop-color="#7D6DDB"/>
</linearGradient>
</defs>
</svg>
