<svg width="9" height="9" viewBox="0 2.5 9 9" fill="none" xmlns="http://www.w3.org/2000/svg">
<path d="M3 7C3 7 3 8.5 4.49998 8.5C6 8.5 6 7 6 7" fill="#DFE3E8"/>
<path d="M3 7C3 7 3 8.5 4.49998 8.5C6 8.5 6 7 6 7" stroke="#8C8C8C" stroke-linejoin="round"/>
<path d="M2.21718 2.88231L1.51699 6.04768C1.40777 6.54144 1.83913 7 2.41277 7H3.13128H5.86871H6.58724C7.16086 7 7.59224 6.5414 7.48301 6.04768L6.78278 2.88231C6.78173 2.87744 6.78073 2.87311 6.77945 2.86826C6.74756 2.74601 6.26107 1 4.49999 1C2.73894 1 2.25243 2.746 2.22052 2.86826C2.21925 2.87311 2.21826 2.87744 2.21718 2.88231Z" fill="#F4F6F9" stroke="#8C8C8C" stroke-linejoin="round"/>
<path d="M8 2.5C7.875 1.75 7.75 1.375 7.5 1Z" fill="#DFE3E8"/>
<path d="M8 2.5C7.875 1.75 7.75 1.375 7.5 1" stroke="#8C8C8C" stroke-linecap="round" stroke-linejoin="round"/>
<path d="M1 2.5C1.125 1.75 1.25 1.375 1.5 1Z" fill="#DFE3E8"/>
<path d="M1 2.5C1.125 1.75 1.25 1.375 1.5 1" stroke="#8C8C8C" stroke-linecap="round" stroke-linejoin="round"/>
</svg>
