<svg width="15" height="14" viewBox="0 0 15 14" fill="none" xmlns="http://www.w3.org/2000/svg">
<path d="M6.24928 12.4986C2.80455 12.4986 0 9.694 0 6.24928C0 2.80455 2.80455 0 6.24928 0C9.694 0 12.4986 2.80455 12.4986 6.24928C12.4986 9.694 9.694 12.4986 6.24928 12.4986ZM6.24928 0.914529C3.3045 0.914529 0.914529 3.31059 0.914529 6.24928C0.914529 9.18796 3.3045 11.584 6.24928 11.584C9.19406 11.584 11.584 9.18796 11.584 6.24928C11.584 3.31059 9.19406 0.914529 6.24928 0.914529Z" fill="#919EAB"/>
<path d="M14.1309 13.4406C13.9099 13.4406 13.689 13.3592 13.5146 13.1848L11.1891 10.8593C10.852 10.5221 10.852 9.96399 11.1891 9.6268C11.5263 9.2896 12.0845 9.2896 12.4216 9.6268L14.7471 11.9523C15.0843 12.2895 15.0843 12.8476 14.7471 13.1848C14.5727 13.3592 14.3518 13.4406 14.1309 13.4406Z" fill="#919EAB"/>
</svg>
